<?xml version="1.0" standalone="no"?>
<!DOCTYPE svg PUBLIC "-//W3C//DTD SVG 20010904//EN"
 "http://www.w3.org/TR/2001/REC-SVG-20010904/DTD/svg10.dtd">
<svg version="1.0" xmlns="http://www.w3.org/2000/svg"
 width="220.000000pt" height="260.000000pt" viewBox="0 0 220.000000 260.000000"
 preserveAspectRatio="xMidYMid meet">

<g transform="translate(0.000000,260.000000) scale(0.100000,-0.100000)"
fill="#000000" stroke="none">
<path d="M1641 2567 c228 -87 419 -265 524 -489 l34 -73 1 298 0 297 -322 0
-323 -1 86 -32z"/>
<path d="M710 1960 c0 -5 51 -65 113 -133 61 -67 213 -235 337 -372 124 -137
283 -312 353 -390 l128 -140 -348 -3 -348 -3 -115 121 -115 120 -347 0 c-192
0 -348 -3 -348 -7 0 -5 147 -170 327 -368 179 -198 389 -430 466 -515 77 -85
164 -181 194 -213 l55 -57 353 2 353 3 -184 200 c-100 110 -183 206 -183 213
-1 9 74 12 341 12 l342 0 58 -61 58 -60 0 513 -1 513 -34 -72 c-18 -40 -38
-73 -43 -73 -5 0 -47 42 -93 93 -46 51 -205 227 -353 390 l-269 297 -348 0
c-225 0 -349 -4 -349 -10z"/>
</g>
</svg>
